<mxfile host="app.diagrams.net" modified="2021-07-11T17:24:49.024Z" agent="5.0 (Windows)" etag="I-yiF6Poe24S_qKoXBjb" version="14.8.5" type="github">
  <diagram id="k4BqOmknKHirriz-UCE8" name="Page-1">
    <mxGraphModel dx="1185" dy="658" grid="1" gridSize="10" guides="1" tooltips="1" connect="1" arrows="1" fold="1" page="1" pageScale="1" pageWidth="827" pageHeight="1169" math="0" shadow="0">
      <root>
        <mxCell id="0" />
        <mxCell id="1" parent="0" />
        <mxCell id="XZbBXxAa34ifwgSiw154-1" value="" style="rounded=0;whiteSpace=wrap;html=1;" vertex="1" parent="1">
          <mxGeometry x="80" y="160" width="680" height="440" as="geometry" />
        </mxCell>
        <mxCell id="XZbBXxAa34ifwgSiw154-2" value="" style="rounded=0;whiteSpace=wrap;html=1;" vertex="1" parent="1">
          <mxGeometry x="150" y="400" width="40" height="40" as="geometry" />
        </mxCell>
        <mxCell id="XZbBXxAa34ifwgSiw154-6" value="" style="rounded=0;whiteSpace=wrap;html=1;" vertex="1" parent="1">
          <mxGeometry x="200" y="400" width="40" height="40" as="geometry" />
        </mxCell>
        <mxCell id="XZbBXxAa34ifwgSiw154-7" value="" style="rounded=0;whiteSpace=wrap;html=1;" vertex="1" parent="1">
          <mxGeometry x="300" y="400" width="40" height="40" as="geometry" />
        </mxCell>
        <mxCell id="XZbBXxAa34ifwgSiw154-8" value="" style="rounded=0;whiteSpace=wrap;html=1;" vertex="1" parent="1">
          <mxGeometry x="250" y="400" width="40" height="40" as="geometry" />
        </mxCell>
        <mxCell id="XZbBXxAa34ifwgSiw154-9" value="" style="rounded=0;whiteSpace=wrap;html=1;" vertex="1" parent="1">
          <mxGeometry x="300" y="450" width="40" height="40" as="geometry" />
        </mxCell>
        <mxCell id="XZbBXxAa34ifwgSiw154-10" value="" style="rounded=0;whiteSpace=wrap;html=1;" vertex="1" parent="1">
          <mxGeometry x="250" y="450" width="40" height="40" as="geometry" />
        </mxCell>
        <mxCell id="XZbBXxAa34ifwgSiw154-11" value="" style="rounded=0;whiteSpace=wrap;html=1;" vertex="1" parent="1">
          <mxGeometry x="200" y="450" width="40" height="40" as="geometry" />
        </mxCell>
        <mxCell id="XZbBXxAa34ifwgSiw154-12" value="" style="rounded=0;whiteSpace=wrap;html=1;" vertex="1" parent="1">
          <mxGeometry x="150" y="450" width="40" height="40" as="geometry" />
        </mxCell>
      </root>
    </mxGraphModel>
  </diagram>
</mxfile>
